<svg width="53" height="59" viewBox="0 0 53 59" fill="none" xmlns="http://www.w3.org/2000/svg">
<path d="M26.5132 10.5C28.6705 10.4338 30.8344 10.4272 32.9851 10.2882C34.4432 10.1955 35.8681 10.2352 37.2863 10.5729C37.819 10.6987 38.1386 10.9701 38.2118 11.5262C38.3516 12.5988 38.5048 13.6647 38.6579 14.7306C38.8444 15.9951 38.8444 17.2994 39.5701 18.4315C40.1227 19.2922 40.6754 20.1462 41.248 20.9937C41.7807 21.7815 42.1136 22.6157 42.1136 23.5823C42.1003 26.1842 42.1003 28.7795 42.1269 31.3814C42.1269 31.8713 41.9538 32.2288 41.6275 32.5731C40.2692 34.0164 38.8377 35.4067 37.7923 37.1082C37.1598 38.1344 36.6338 39.2201 36.0612 40.2861C36.0079 40.3854 35.948 40.4847 35.8281 40.6899C35.7682 40.2596 35.7482 39.9418 35.6683 39.6439C35.5285 39.0944 35.382 38.5382 35.1823 38.002C34.916 37.2936 34.2768 36.9162 33.6975 36.5057C33.1915 36.1482 32.6388 35.8635 32.0995 35.5523C31.7999 35.3802 31.6734 35.1683 31.7133 34.7976C31.953 32.8048 32.1594 30.812 32.3792 28.8192C32.5256 27.4885 33.1515 26.3696 34.0171 25.3964C34.7895 24.5291 35.6284 23.7213 36.474 22.9269C36.7736 22.6488 37.1931 22.4965 37.5327 22.2648C37.8523 22.0463 38.1519 21.7881 38.4182 21.4836C37.7591 21.5829 37.1332 21.755 36.6338 22.1589C35.4686 23.1056 34.3167 24.0722 33.1915 25.0653C32.5589 25.6281 32.4058 25.6678 31.7133 25.211C31.0209 24.7608 30.8477 24.0855 30.8145 23.3307C30.8011 23.0461 30.8611 22.7349 30.5281 22.4965C30.4815 22.6223 30.4083 22.7283 30.4083 22.8342C30.4016 23.5294 30.3883 24.2245 30.415 24.9131C30.415 25.0786 30.5415 25.2573 30.6347 25.4096C30.7678 25.6215 30.9143 25.8201 31.0675 26.0121C31.5935 26.6344 31.8199 27.2501 31.6001 28.1307C31.2539 29.5475 31.1407 31.0239 30.8944 32.4671C30.7545 33.2682 30.5415 34.0627 30.3484 34.8572C30.2485 35.2677 29.9689 35.4663 29.5361 35.4795C28.524 35.506 27.5186 35.5457 26.5065 35.5788C25.5145 35.5457 24.5157 35.5259 23.5236 35.4861C22.9843 35.4663 22.7446 35.314 22.6181 34.791C22.3984 33.8773 22.2119 32.9504 22.0521 32.0302C21.7991 30.5869 21.5727 29.137 21.3264 27.6937C21.2598 27.3097 21.2665 26.9588 21.5062 26.6344C21.7991 26.2372 22.0988 25.8399 22.3784 25.4295C22.4783 25.2838 22.5981 25.1051 22.5981 24.9329C22.6181 24.0855 22.6114 23.2447 22.6114 22.3972C22.5648 22.384 22.5182 22.3641 22.4783 22.3509C22.3851 22.5561 22.2585 22.7547 22.2186 22.9732C22.1387 23.3771 22.132 23.8008 22.0455 24.2047C21.899 24.8667 21.353 25.2176 20.8137 25.5155C20.5274 25.6744 20.2944 25.4559 20.0746 25.2639C19.0026 24.3238 17.9307 23.3837 16.8387 22.4634C16.2062 21.9272 15.4471 21.616 14.6481 21.4174C14.6215 21.4439 14.5949 21.477 14.5682 21.5035C14.7879 21.7219 14.9677 22.0199 15.234 22.139C16.6656 22.7878 17.6577 23.9531 18.703 25.0521C20.1212 26.5417 20.7138 28.3425 20.847 30.3486C20.9402 31.719 21.1266 33.0829 21.2665 34.4533C21.2931 34.7115 21.2998 34.9763 21.3131 35.261C21.1466 35.367 20.9935 35.4597 20.8403 35.5656C20.0413 36.0952 19.2091 36.5851 18.45 37.1678C18.1504 37.3995 17.904 37.7835 17.7842 38.1476C17.5578 38.7964 17.4446 39.485 17.2848 40.1603C17.2582 40.2794 17.2315 40.3986 17.1783 40.6369C16.9985 40.3192 16.852 40.1139 16.7521 39.8822C15.7334 37.4591 14.1354 35.4398 12.3244 33.5662C11.9382 33.1623 11.5387 32.7717 11.1991 32.3281C11.0194 32.103 10.8662 31.7786 10.8662 31.5005C10.8662 28.7199 10.8862 25.9326 10.9328 23.152C10.9461 22.3443 11.3256 21.6425 11.7784 20.9738C12.2977 20.2058 12.7905 19.418 13.3031 18.6434C13.8758 17.7827 14.1021 16.8227 14.222 15.8097C14.3884 14.34 14.6281 12.8768 14.8346 11.4071C14.9011 10.9436 15.1874 10.7053 15.6136 10.5993C16.9985 10.2485 18.3901 10.1822 19.8216 10.2683C22.0521 10.4007 24.296 10.4272 26.5332 10.5H26.5132ZM34.33 26.1842C35.0691 26.8264 36.4074 26.6808 37.1931 25.9061C38.0853 25.0256 38.3916 23.7677 37.839 23.1321C36.5339 23.9928 35.3554 24.9991 34.33 26.1842ZM15.1408 23.1123C14.5616 23.728 14.9877 25.1845 15.9465 26.0253C16.7122 26.694 17.944 26.7801 18.6897 26.1842C17.651 25.0057 16.4725 23.9928 15.1408 23.1123Z" fill="#54B3C3"/>
<path d="M26.5135 51.1703C26.6667 51.1968 26.8132 51.2365 26.9663 51.2431C28.3113 51.3093 29.6629 51.3755 31.0079 51.4219C31.4074 51.4351 31.747 51.3292 32.0266 50.9783C32.7723 50.0514 33.578 49.1709 34.3237 48.244C34.65 47.8401 34.9496 47.3899 35.156 46.9132C35.2759 46.6352 35.1959 46.2644 35.1893 45.9334C35.1893 45.7348 35.0828 45.5295 35.1227 45.3442C35.3358 44.3511 35.4823 43.3249 35.8418 42.3781C36.4743 40.723 37.3266 39.1539 38.2454 37.6312C38.9912 36.3865 39.9034 35.2875 40.9154 34.2613C41.5213 33.6456 42.1006 32.9968 42.6666 32.3413C42.813 32.1692 42.9329 31.9044 42.9395 31.6859C42.9595 31.0371 42.8996 30.3883 42.8929 29.7394C42.8929 29.4018 42.9329 29.0641 42.9728 28.7265C42.9862 28.647 43.086 28.5808 43.2059 28.4352C43.3191 28.6868 43.4123 28.8589 43.4722 29.0377C44.3911 31.6925 45.3032 34.354 46.2221 37.0088C46.2421 37.0684 46.262 37.128 46.2953 37.181C46.9478 38.2535 47.0211 39.3989 46.6482 40.5707C46.2687 41.7757 45.8426 42.974 45.4231 44.1657C45.3698 44.3246 45.2766 44.4636 45.1967 44.6159C45.1634 44.6159 45.1301 44.6093 45.0968 44.6027C45.1101 44.3908 45.1301 44.1789 45.1434 43.9605C45.25 42.2192 45.1101 40.5111 44.4443 38.8758C44.4177 38.7633 44.3844 38.6507 44.3578 38.5382C44.3245 38.5448 44.2912 38.5581 44.2579 38.5647C44.2845 38.6706 44.3178 38.7765 44.3444 38.8825C44.5375 41.2593 44.158 43.5566 43.3524 45.7877C42.1539 49.0848 40.1364 51.7794 37.2667 53.845C34.883 55.5597 32.213 56.5197 29.3233 56.9037C28.3845 57.0295 27.439 57.0494 26.4936 57.1156C23.9634 57.1023 21.5132 56.6918 19.1694 55.7319C15.5407 54.2488 12.7642 51.7992 10.8532 48.4029C9.33514 45.7083 8.54946 42.8085 8.60273 39.7034C8.60273 39.3525 8.65599 38.995 8.64268 38.6375C7.83037 40.5376 7.73715 42.537 7.87031 44.5629C7.83702 44.5695 7.81039 44.5828 7.7771 44.5894C7.66391 44.3312 7.54406 44.0796 7.44418 43.8148C6.90486 42.4112 6.39883 41.0077 6.14582 39.518C6.0526 38.9884 6.14582 38.5183 6.33891 38.0284C7.18451 35.7708 8.02346 33.5132 8.84908 31.2423C9.13539 30.4611 9.35511 29.6534 9.60813 28.8523C9.65474 28.7132 9.71466 28.5808 9.77459 28.4484H9.92773C9.98765 28.6537 10.0942 28.8721 10.0942 29.0906C10.0942 29.7858 10.0676 30.4809 10.0209 31.1761C9.98765 31.6991 10.0942 32.1295 10.4804 32.5267C11.3859 33.4602 12.3047 34.3937 13.137 35.3868C13.7829 36.1548 14.3821 36.9757 14.8748 37.8497C15.6872 39.2863 16.4129 40.7826 17.1453 42.259C17.3051 42.5834 17.3784 42.9607 17.4649 43.3183C17.6047 43.8876 17.7379 44.457 17.8245 45.0396C17.8644 45.3243 17.7845 45.6355 17.7779 45.9268C17.7779 46.2379 17.7312 46.5756 17.8245 46.8603C17.931 47.1913 18.1241 47.5157 18.3438 47.7872C19.2227 48.8663 20.1349 49.9256 21.0271 50.9981C21.2934 51.3159 21.633 51.4152 22.0258 51.3888C23.3309 51.3159 24.6292 51.2431 25.9343 51.1703C26.134 51.157 26.3338 51.1504 26.5402 51.1372L26.5135 51.1703Z" fill="#54B3C3"/>
<path d="M26.5062 36.1156C28.0576 36.0891 29.609 36.0626 31.1604 36.0229C32.492 35.9898 34.6826 37.4132 35.0155 38.744C35.3285 40.0019 35.6015 41.2664 35.1753 42.5707C34.9956 43.1268 34.889 43.7094 34.7292 44.2722C34.6693 44.4906 34.5628 44.6959 34.4496 44.9673C34.13 44.9144 33.8437 44.8746 33.564 44.8084C32.279 44.5237 31.0072 44.153 29.7089 43.9676C28.6569 43.8153 27.5716 43.8683 26.5062 43.8352C24.1026 43.6895 21.7789 44.1133 19.4817 44.7819C19.2021 44.8614 18.9158 44.9144 18.5895 44.9872C18.483 44.7687 18.3765 44.5966 18.3232 44.4178C18.1301 43.7359 17.9437 43.0473 17.7706 42.3588C17.4376 41.0678 17.5841 39.7635 18.0702 38.5851C18.6295 37.2279 19.808 36.4003 21.2595 36.1355C22.1051 35.9832 22.9907 36.056 23.8562 36.056C24.7418 36.056 25.6273 36.0891 26.5129 36.109L26.5062 36.1156ZM23.4701 38.7704C23.0506 38.2871 22.6977 37.8899 22.3581 37.4794C22.1584 37.2477 21.9453 37.2874 21.7389 37.4397C21.366 37.7178 20.9998 38.0091 20.6536 38.3136C20.1875 38.7175 19.9545 39.214 20.1143 39.843C20.2807 40.4852 20.7535 40.803 21.3594 40.9552C22.1118 41.1472 22.8442 41.0214 23.5433 40.7235C23.803 40.6176 24.036 40.4455 24.2824 40.2998C24.2824 40.2535 24.2691 40.2137 24.2691 40.1674C24.056 40.0747 23.8363 39.982 23.5966 39.8761C23.5366 40.0681 23.49 40.1939 23.4501 40.313C22.731 40.6441 22.0119 40.6507 21.2928 40.4388C20.7735 40.2866 20.5204 39.7768 20.6403 39.214C20.7535 38.7042 21.0931 38.4659 21.6923 38.5652C22.1451 38.638 22.5845 38.8102 23.0306 38.936C23.1305 38.9624 23.237 38.9691 23.3635 38.9889C23.4101 38.8764 23.4501 38.7771 23.4567 38.7572L23.4701 38.7704ZM28.8699 40.1806C28.8899 40.2733 28.8899 40.3064 28.9099 40.3263C28.9498 40.3726 28.9964 40.419 29.0431 40.4521C29.7954 40.9155 30.6211 41.1208 31.4933 41.0082C31.8329 40.9619 32.1858 40.803 32.4654 40.6044C33.1113 40.1409 33.2378 39.1875 32.7184 38.6447C32.3256 38.2342 31.8795 37.87 31.4267 37.5125C31.2802 37.3934 31.0539 37.3801 30.9673 37.347C30.4679 37.8634 30.0551 38.2871 29.609 38.7506C29.6756 38.83 29.7555 38.9227 29.8021 38.9757C30.3814 38.8234 30.8874 38.6579 31.4001 38.5586C31.9194 38.4593 32.3256 38.744 32.4521 39.2405C32.5786 39.7304 32.3722 40.2137 31.9194 40.3859C31.1804 40.6639 30.4346 40.6573 29.7222 40.366C29.6223 40.2137 29.5424 40.0879 29.4359 39.9224C29.2361 40.0151 29.0497 40.1012 28.8699 40.1806Z" fill="#54B3C3"/>
<path d="M7.97013 0.973051C6.43872 4.72692 5.38005 8.54038 5.81284 12.6253C5.85279 12.6385 5.89274 12.6518 5.92603 12.665C6.19902 11.9367 6.47867 11.2019 6.77163 10.4206C7.5906 10.5464 8.36962 10.6457 9.14198 10.7914C10.2073 10.99 11.2726 11.2019 12.3313 11.4402C13.3034 11.6587 13.6097 11.9963 13.5431 12.9894C13.4566 14.2341 13.2502 15.4721 13.0904 16.7565C12.844 16.836 12.6376 16.922 12.4179 16.975C11.013 17.3127 9.64136 17.114 8.28306 16.7234C6.31221 16.1607 4.43457 15.3993 2.80329 14.1348C2.53696 13.9295 2.27063 13.7111 2.03093 13.4661C0.685954 12.0692 0.452914 10.6921 1.22528 8.91776C2.09751 6.91172 3.39588 5.21685 4.96724 3.71397C5.83947 2.87978 6.73168 2.05883 7.61724 1.23787C7.72377 1.13857 7.84362 1.0525 7.96347 0.966431L7.97013 0.973051Z" fill="#54B3C3"/>
<path d="M26.5069 44.6558C27.792 44.722 29.097 44.6691 30.3554 44.8809C31.5339 45.0795 32.6858 45.5099 33.8177 45.927C34.4503 46.1653 34.5368 46.6486 34.144 47.1915C33.7045 47.8072 33.2318 48.4031 32.7524 48.9857C32.4394 49.3697 32.0799 49.7073 31.7603 50.0847C31.474 50.429 31.1278 50.5415 30.695 50.5084C29.6763 50.429 28.6509 50.3694 27.6322 50.3164C27.2593 50.2966 26.8864 50.3164 26.5136 50.3164C25.335 50.3628 24.1499 50.3561 22.978 50.4753C22.0991 50.568 21.4067 50.4224 20.8607 49.6808C20.2415 48.8467 19.549 48.072 18.9298 47.2445C18.4237 46.5625 18.5636 46.119 19.3559 45.8144C21.2202 45.0928 23.1312 44.5896 25.1553 44.6492C25.608 44.6624 26.0541 44.6492 26.5069 44.6426V44.6558Z" fill="#54B3C3"/>
<path d="M12.0981 18.1604C11.4655 19.2329 10.7531 20.2062 10.2937 21.2787C9.83425 22.338 9.62118 23.5032 9.28161 24.6684C7.11101 24.5757 5.01365 24.2116 3.03613 23.0729C4.55422 21.3449 6.1389 19.7824 8.25623 18.8688C9.46138 18.3458 10.6998 18.0214 12.0981 18.167V18.1604Z" fill="#54B3C3"/>
<path d="M46.2021 10.4142C46.4751 11.1424 46.7414 11.8574 47.0011 12.5725L47.1409 12.5592C47.1742 12.1752 47.2009 11.7912 47.2342 11.4072C47.4406 8.8186 46.8014 6.34912 46.0556 3.91274C45.7893 3.0322 45.3832 2.18477 45.0436 1.32409C45.0036 1.22478 44.9703 1.1321 44.937 1.03279C44.9637 1.0063 44.9903 0.986443 45.0169 0.959961C45.3099 1.20492 45.6228 1.43664 45.8958 1.70147C47.0211 2.8071 48.173 3.89288 49.2516 5.04486C50.5167 6.38884 51.4622 7.95792 52.0348 9.71238C52.4609 11.01 52.0614 12.1885 51.1825 13.1948C50.4435 14.0489 49.5113 14.6712 48.5192 15.2008C46.8613 16.0814 45.1235 16.7302 43.2658 17.0347C42.3403 17.187 41.4148 17.1605 40.4893 16.9752C40.1031 16.8957 39.8767 16.717 39.8301 16.2734C39.7169 15.2604 39.5105 14.2607 39.4173 13.2478C39.3774 12.8505 39.4906 12.4202 39.6237 12.0362C39.697 11.8376 39.9433 11.6323 40.1564 11.5661C42.1139 11.01 44.1181 10.6856 46.1888 10.4075L46.2021 10.4142Z" fill="#54B3C3"/>
<path d="M40.8955 18.167C41.6479 18.0544 42.3204 18.114 42.9862 18.2663C44.2446 18.551 45.3899 19.0872 46.4552 19.8089C47.6736 20.6298 48.6924 21.6693 49.6845 22.7286C49.7577 22.8014 49.7976 22.9007 49.9042 23.0662C47.9799 24.2513 45.8693 24.5294 43.7053 24.6684C43.3724 23.5098 43.1593 22.3446 42.6999 21.2787C42.2405 20.2127 41.5347 19.2461 40.8955 18.167Z" fill="#54B3C3"/>
<path d="M44.3444 38.9027C44.3177 38.7968 44.2844 38.6909 44.2578 38.5849C44.2911 38.5783 44.3244 38.5651 44.3577 38.5585C44.3843 38.671 44.4176 38.7835 44.4442 38.8961C44.4109 38.8961 44.3776 38.8961 44.3444 38.8961V38.9027Z" fill="#54B3C3"/>
</svg>
