<svg width="32" height="33" viewBox="0 0 32 33" fill="none" xmlns="http://www.w3.org/2000/svg">
<g clip-path="url(#clip0_924_3217)">
<path d="M15.9997 20.579C18.2088 20.579 19.9997 18.7882 19.9997 16.579C19.9997 14.3699 18.2088 12.579 15.9997 12.579C13.7905 12.579 11.9997 14.3699 11.9997 16.579C11.9997 18.7882 13.7905 20.579 15.9997 20.579Z" stroke="white" stroke-width="2" stroke-linecap="round" stroke-linejoin="round"/>
<path d="M25.8663 20.579C25.6889 20.9812 25.6359 21.4273 25.7143 21.8598C25.7928 22.2923 25.999 22.6914 26.3063 23.0057L26.3863 23.0857C26.6343 23.3333 26.831 23.6275 26.9652 23.9512C27.0994 24.2749 27.1684 24.6219 27.1684 24.9724C27.1684 25.3228 27.0994 25.6698 26.9652 25.9935C26.831 26.3173 26.6343 26.6114 26.3863 26.859C26.1387 27.107 25.8446 27.3036 25.5208 27.4378C25.1971 27.572 24.8501 27.6411 24.4997 27.6411C24.1492 27.6411 23.8022 27.572 23.4785 27.4378C23.1548 27.3036 22.8607 27.107 22.613 26.859L22.533 26.779C22.2188 26.4716 21.8197 26.2654 21.3871 26.187C20.9546 26.1086 20.5085 26.1615 20.1063 26.339C19.712 26.508 19.3757 26.7887 19.1388 27.1464C18.9019 27.5041 18.7747 27.9233 18.773 28.3524V28.579C18.773 29.2863 18.4921 29.9645 17.992 30.4646C17.4919 30.9647 16.8136 31.2457 16.1063 31.2457C15.3991 31.2457 14.7208 30.9647 14.2207 30.4646C13.7206 29.9645 13.4397 29.2863 13.4397 28.579V28.459C13.4294 28.0177 13.2865 27.5897 13.0297 27.2306C12.7729 26.8716 12.414 26.5981 11.9997 26.4457C11.5975 26.2682 11.1514 26.2153 10.7189 26.2937C10.2864 26.3721 9.88725 26.5783 9.57301 26.8857L9.49301 26.9657C9.24535 27.2136 8.95124 27.4103 8.62752 27.5445C8.30379 27.6787 7.95678 27.7478 7.60634 27.7478C7.2559 27.7478 6.9089 27.6787 6.58517 27.5445C6.26144 27.4103 5.96734 27.2136 5.71967 26.9657C5.47174 26.718 5.27505 26.4239 5.14085 26.1002C5.00665 25.7765 4.93758 25.4295 4.93758 25.079C4.93758 24.7286 5.00665 24.3816 5.14085 24.0578C5.27505 23.7341 5.47174 23.44 5.71967 23.1924L5.79967 23.1124C6.10706 22.7981 6.31326 22.399 6.39168 21.9665C6.47011 21.5339 6.41716 21.0878 6.23967 20.6857C6.07066 20.2913 5.79002 19.955 5.43229 19.7181C5.07457 19.4812 4.65539 19.3541 4.22634 19.3524H3.99967C3.29243 19.3524 2.61415 19.0714 2.11406 18.5713C1.61396 18.0712 1.33301 17.3929 1.33301 16.6857C1.33301 15.9784 1.61396 15.3002 2.11406 14.8001C2.61415 14.3 3.29243 14.019 3.99967 14.019H4.11967C4.561 14.0087 4.98901 13.8658 5.34807 13.609C5.70713 13.3522 5.98063 12.9933 6.13301 12.579C6.31049 12.1769 6.36344 11.7308 6.28501 11.2982C6.20659 10.8657 6.00039 10.4666 5.69301 10.1524L5.61301 10.0724C5.36507 9.82469 5.16838 9.53059 5.03418 9.20686C4.89998 8.88313 4.83091 8.53613 4.83091 8.18569C4.83091 7.83525 4.89998 7.48824 5.03418 7.16451C5.16838 6.84078 5.36507 6.54668 5.61301 6.29902C5.86067 6.05108 6.15477 5.85439 6.4785 5.72019C6.80223 5.586 7.14923 5.51692 7.49967 5.51692C7.85012 5.51692 8.19712 5.586 8.52085 5.72019C8.84458 5.85439 9.13868 6.05108 9.38634 6.29902L9.46634 6.37902C9.78058 6.6864 10.1797 6.8926 10.6122 6.97103C11.0447 7.04945 11.4909 6.99651 11.893 6.81902H11.9997C12.394 6.65 12.7304 6.36936 12.9673 6.01164C13.2042 5.65392 13.3313 5.23474 13.333 4.80569V4.57902C13.333 3.87178 13.614 3.1935 14.1141 2.6934C14.6142 2.19331 15.2924 1.91235 15.9997 1.91235C16.7069 1.91235 17.3852 2.19331 17.8853 2.6934C18.3854 3.1935 18.6663 3.87178 18.6663 4.57902V4.69902C18.6681 5.12807 18.7952 5.54725 19.0321 5.90497C19.269 6.26269 19.6053 6.54334 19.9997 6.71235C20.4018 6.88984 20.8479 6.94278 21.2805 6.86436C21.713 6.78593 22.1121 6.57974 22.4263 6.27235L22.5063 6.19235C22.754 5.94442 23.0481 5.74773 23.3718 5.61353C23.6956 5.47933 24.0426 5.41026 24.393 5.41026C24.7434 5.41026 25.0905 5.47933 25.4142 5.61353C25.7379 5.74773 26.032 5.94442 26.2797 6.19235C26.5276 6.44002 26.7243 6.73412 26.8585 7.05785C26.9927 7.38157 27.0618 7.72858 27.0618 8.07902C27.0618 8.42946 26.9927 8.77647 26.8585 9.10019C26.7243 9.42392 26.5276 9.71803 26.2797 9.96569L26.1997 10.0457C25.8923 10.3599 25.6861 10.759 25.6077 11.1916C25.5292 11.6241 25.5822 12.0702 25.7597 12.4724V12.579C25.9287 12.9734 26.2093 13.3097 26.5671 13.5466C26.9248 13.7835 27.344 13.9106 27.773 13.9124H27.9997C28.7069 13.9124 29.3852 14.1933 29.8853 14.6934C30.3854 15.1935 30.6663 15.8718 30.6663 16.579C30.6663 17.2863 30.3854 17.9645 29.8853 18.4646C29.3852 18.9647 28.7069 19.2457 27.9997 19.2457H27.8797C27.4506 19.2474 27.0314 19.3745 26.6737 19.6114C26.316 19.8483 26.0354 20.1847 25.8663 20.579Z" stroke="white" stroke-width="2" stroke-linecap="round" stroke-linejoin="round"/>
</g>
<defs>
<clipPath id="clip0_924_3217">
<rect width="32" height="32" fill="white" transform="translate(0 0.578979)"/>
</clipPath>
</defs>
</svg>
