<svg width="32" height="33" viewBox="0 0 32 33" fill="none" xmlns="http://www.w3.org/2000/svg">
<path d="M18.9007 6.2086C18.9022 4.57155 15.5641 3.24561 11.4511 3.24561C7.33809 3.24561 4.00298 4.57303 4 6.2086M4 6.2086C4 7.84565 7.33511 9.17159 11.4511 9.17159C15.5671 9.17159 18.9022 7.84565 18.9022 6.2086L18.9022 17.7049M4 6.2086V23.9865C4.00149 25.6235 7.3366 26.9495 11.4511 26.9495C13.4465 26.9495 15.2482 26.6339 16.5849 26.1257M4.00149 12.1346C4.00149 13.7716 7.3366 15.0976 11.4526 15.0976C15.5686 15.0976 18.9037 13.7716 18.9037 12.1346M16.6743 20.1718C15.3301 20.6977 13.4867 21.0236 11.4511 21.0236C7.3366 21.0236 4.00149 19.6977 4.00149 18.0606M27.3696 18.5318C29.9879 21.1348 29.9879 25.357 27.3696 27.96C24.7513 30.563 20.5042 30.563 17.8859 27.96C15.2675 25.357 15.2675 21.1348 17.8859 18.5318C20.5042 15.9288 24.7513 15.9288 27.3696 18.5318Z" stroke="white" stroke-width="2" stroke-linecap="round" stroke-linejoin="round"/>
</svg>
