<svg width="25" height="24" viewBox="0 0 25 24" fill="none" xmlns="http://www.w3.org/2000/svg">
<g clip-path="url(#clip0_554_5004)">
<path d="M21.5 4.5H3.5C3.10218 4.5 2.72064 4.65804 2.43934 4.93934C2.15804 5.22064 2 5.60218 2 6V8.25C2 8.64782 2.15804 9.02936 2.43934 9.31066C2.72064 9.59196 3.10218 9.75 3.5 9.75V18C3.5 18.3978 3.65804 18.7794 3.93934 19.0607C4.22064 19.342 4.60218 19.5 5 19.5H20C20.3978 19.5 20.7794 19.342 21.0607 19.0607C21.342 18.7794 21.5 18.3978 21.5 18V9.75C21.8978 9.75 22.2794 9.59196 22.5607 9.31066C22.842 9.02936 23 8.64782 23 8.25V6C23 5.60218 22.842 5.22064 22.5607 4.93934C22.2794 4.65804 21.8978 4.5 21.5 4.5ZM14.75 13.5H10.25C10.0511 13.5 9.86032 13.421 9.71967 13.2803C9.57902 13.1397 9.5 12.9489 9.5 12.75C9.5 12.5511 9.57902 12.3603 9.71967 12.2197C9.86032 12.079 10.0511 12 10.25 12H14.75C14.9489 12 15.1397 12.079 15.2803 12.2197C15.421 12.3603 15.5 12.5511 15.5 12.75C15.5 12.9489 15.421 13.1397 15.2803 13.2803C15.1397 13.421 14.9489 13.5 14.75 13.5ZM21.5 8.25H3.5V6H21.5V8.25Z" fill="#BABABA"/>
</g>
<defs>
<clipPath id="clip0_554_5004">
<rect width="24" height="24" fill="white" transform="translate(0.5)"/>
</clipPath>
</defs>
</svg>
