<svg width="24" height="21" viewBox="0 0 24 21" fill="none" xmlns="http://www.w3.org/2000/svg">
<g clip-path="url(#clip0_655_216)">
<path d="M1 0C0.445833 0 0 0.438867 0 0.984375C0 1.52988 0.445833 1.96875 1 1.96875H2.89583C3.05417 1.96875 3.19167 2.07949 3.225 2.23535L5.375 13.3506C5.64583 14.7451 6.88333 15.75 8.32083 15.75H20.3333C20.8875 15.75 21.3333 15.3111 21.3333 14.7656C21.3333 14.2201 20.8875 13.7812 20.3333 13.7812H8.32083C7.84167 13.7812 7.42917 13.4449 7.3375 12.9814L7.1125 11.8125H19.1333C20.4917 11.8125 21.6792 10.9184 22.0292 9.62637L23.7375 3.37969C24.025 2.33789 23.225 1.3125 22.1292 1.3125H5.00417C4.625 0.525 3.81667 0 2.89583 0H1ZM5.4625 3.28125H21.6958L20.1 9.11367C19.9833 9.54434 19.5875 9.84375 19.1333 9.84375H6.73333L5.4625 3.28125ZM7.33333 21C7.86377 21 8.37247 20.7926 8.74755 20.4234C9.12262 20.0542 9.33333 19.5534 9.33333 19.0312C9.33333 18.5091 9.12262 18.0083 8.74755 17.6391C8.37247 17.2699 7.86377 17.0625 7.33333 17.0625C6.8029 17.0625 6.29419 17.2699 5.91912 17.6391C5.54405 18.0083 5.33333 18.5091 5.33333 19.0312C5.33333 19.5534 5.54405 20.0542 5.91912 20.4234C6.29419 20.7926 6.8029 21 7.33333 21ZM21.3333 19.0312C21.3333 18.5091 21.1226 18.0083 20.7475 17.6391C20.3725 17.2699 19.8638 17.0625 19.3333 17.0625C18.8029 17.0625 18.2942 17.2699 17.9191 17.6391C17.544 18.0083 17.3333 18.5091 17.3333 19.0312C17.3333 19.5534 17.544 20.0542 17.9191 20.4234C18.2942 20.7926 18.8029 21 19.3333 21C19.8638 21 20.3725 20.7926 20.7475 20.4234C21.1226 20.0542 21.3333 19.5534 21.3333 19.0312Z" fill="black"/>
</g>
<defs>
<clipPath id="clip0_655_216">
<rect width="24" height="21" fill="white"/>
</clipPath>
</defs>
</svg>
