<svg width="808" height="138" viewBox="0 0 808 138" fill="none" xmlns="http://www.w3.org/2000/svg">
<path d="M65.4755 0.090523C71.4619 0.0301732 79.1967 0 88.6796 0C98.1626 0 105.881 0.0301732 111.835 0.090523C117.789 0.150873 123.968 0.439211 130.372 0.955537C136.777 1.47186 141.754 1.97478 145.303 2.46428C149.098 3.00403 152.815 4.01737 156.371 5.48178C159.33 6.5775 162.15 8.03291 164.772 9.81691C166.998 11.6779 168.88 13.9331 170.33 16.4755C172.054 19.1097 173.33 22.0242 174.105 25.0955C174.699 27.7375 175.307 31.5999 175.928 36.6827C176.513 41.4347 176.841 46.2164 176.908 51.0057C176.967 55.4716 176.997 61.4462 176.997 68.9296C176.997 76.413 176.967 82.3809 176.908 86.8334C176.838 91.6226 176.511 96.4042 175.928 101.156C175.274 106.266 174.667 110.142 174.105 112.784C173.328 115.86 172.066 118.785 170.37 121.444C168.96 124.001 167.091 126.261 164.86 128.103C162.225 129.863 159.407 131.317 156.459 132.438C152.912 133.93 149.192 134.944 145.391 135.455C141.836 135.911 136.859 136.414 130.461 136.964C124.063 137.514 117.854 137.819 111.835 137.879C105.848 137.94 98.1135 137.97 88.6306 137.97C79.1476 137.97 71.4129 137.94 65.4264 137.879C59.4399 137.819 53.2313 137.531 46.8004 137.014C40.3695 136.498 35.3764 135.995 31.8212 135.506C28.0067 134.956 24.275 133.915 20.7142 132.408C17.7577 131.289 14.9381 129.82 12.3128 128.032C10.0941 126.184 8.21218 123.946 6.75435 121.424C5.01893 118.79 3.72658 115.876 2.93111 112.804C2.11865 108.963 1.4971 105.082 1.06863 101.177C0.483328 96.4245 0.15599 91.6428 0.088255 86.8535C0.0294359 82.3876 0 76.413 0 68.9296C0 61.4462 0.0294359 55.4883 0.088255 51.056C0.169458 46.2642 0.526197 41.4816 1.15674 36.7329C1.81028 31.6837 2.43118 27.8079 3.01937 25.1055C3.77671 22.0155 5.05405 19.0847 6.79369 16.4453C8.25152 13.923 10.1334 11.6856 12.3521 9.83702C14.9999 8.04363 17.8507 6.58787 20.8416 5.50189C24.4301 4.04437 28.1753 3.03138 31.9977 2.4844C35.553 1.9949 40.5297 1.49198 46.9279 0.975652C53.3261 0.459326 59.5086 0.164284 65.4755 0.090523ZM133.215 105.25C134.515 105.25 135.762 104.72 136.681 103.777C137.601 102.834 138.117 101.555 138.117 100.221V37.7589C138.125 37.092 138.003 36.4301 137.759 35.8119C137.515 35.1937 137.153 34.6315 136.696 34.158C136.252 33.6718 135.714 33.2863 135.116 33.0264C134.519 32.7666 133.874 32.6381 133.225 32.6493H44.0163C42.6979 32.6572 41.4358 33.1981 40.5035 34.1546C39.5712 35.1111 39.0439 36.4062 39.0362 37.7589V100.241C39.0253 100.907 39.1506 101.568 39.4039 102.181C39.6572 102.795 40.0329 103.347 40.5068 103.802C40.9683 104.271 41.5162 104.642 42.1187 104.893C42.7212 105.143 43.3663 105.268 44.0163 105.26L133.215 105.25ZM334.828 134.349C333.931 134.385 333.043 134.155 332.271 133.686C331.499 133.216 330.875 132.528 330.475 131.703L321.937 115.469C321.537 114.645 320.913 113.957 320.141 113.487C319.369 113.018 318.481 112.788 317.584 112.824H238.561C237.664 112.788 236.776 113.018 236.004 113.487C235.231 113.957 234.608 114.645 234.208 115.469L225.669 131.703C225.269 132.528 224.646 133.216 223.874 133.686C223.102 134.155 222.214 134.385 221.317 134.349H189.045C188.184 134.362 187.334 134.143 186.582 133.712C185.83 133.282 185.202 132.656 184.761 131.897C184.32 131.139 184.081 130.274 184.069 129.391C184.057 128.508 184.272 127.637 184.692 126.865L248.413 6.28644C248.81 5.45378 249.431 4.75441 250.202 4.26998C250.973 3.78555 251.862 3.53604 252.765 3.55058H303.35C304.254 3.53482 305.143 3.78382 305.914 4.26839C306.685 4.75296 307.305 5.45301 307.702 6.28644L339.563 66.5759L371.423 126.865C371.843 127.637 372.058 128.508 372.046 129.391C372.034 130.274 371.795 131.139 371.354 131.897C370.913 132.656 370.285 133.282 369.533 133.712C368.781 134.143 367.931 134.362 367.07 134.349H334.828ZM255 76.252C254.598 77.0313 254.397 77.9033 254.417 78.7849C254.437 79.6664 254.676 80.5281 255.113 81.2877C255.549 82.0473 256.168 82.6794 256.911 83.1238C257.653 83.5681 258.494 83.8099 259.353 83.8259H296.87C297.729 83.8099 298.57 83.5681 299.312 83.1238C300.055 82.6794 300.674 82.0473 301.11 81.2877C301.547 80.5281 301.786 79.6664 301.806 78.7849C301.826 77.9033 301.625 77.0313 301.222 76.252L282.459 40.7663C282.031 39.965 281.4 39.2965 280.633 38.8309C279.867 38.3653 278.992 38.1196 278.102 38.1196C277.211 38.1196 276.336 38.3653 275.57 38.8309C274.803 39.2965 274.173 39.965 273.744 40.7663L255 76.252ZM468.161 54.4557C494.649 54.4557 512.131 54.8513 520.608 55.6426C529.982 55.7143 539.14 58.5304 547.008 63.7596C552.388 69.1045 555.489 76.4155 555.635 84.0975C555.95 87.5244 556.097 90.9653 556.076 94.4073C556.076 98.5446 555.929 102.192 555.635 105.351C555.366 108.377 554.754 111.361 553.811 114.242C553.009 116.735 551.982 119.146 550.743 121.444C549.498 123.623 547.83 125.517 545.841 127.006C543.769 128.62 541.55 130.024 539.214 131.201C536.341 132.536 533.328 133.532 530.235 134.168C526.521 135.016 522.768 135.67 518.99 136.129C515.226 136.585 510.53 136.964 504.903 137.266C499.276 137.567 493.692 137.765 488.15 137.859C482.607 137.953 475.925 138 468.102 138C460.573 138 454.172 137.953 448.898 137.859C443.623 137.765 438.232 137.598 432.722 137.356C427.213 137.115 422.638 136.78 418.998 136.35C415.358 135.921 411.668 135.345 407.93 134.62C404.829 134.077 401.79 133.208 398.862 132.025C396.49 130.989 394.213 129.737 392.059 128.284C390.034 126.983 388.27 125.296 386.863 123.315C385.515 121.296 384.368 119.143 383.442 116.888C382.379 114.331 381.618 111.653 381.177 108.911C380.668 105.683 380.37 102.424 380.285 99.1548C380.244 98.4662 380.346 97.7766 380.584 97.1315C380.822 96.4864 381.192 95.9007 381.667 95.4131C382.129 94.9121 382.687 94.5154 383.307 94.2487C383.926 93.982 384.593 93.851 385.265 93.8641H414.332C415.65 93.8721 416.912 94.4129 417.844 95.3695C418.777 96.326 419.304 97.621 419.312 98.9738V100.251C419.312 101.585 419.828 102.864 420.747 103.807C421.666 104.75 422.913 105.28 424.213 105.28H512.04C512.69 105.288 513.335 105.163 513.937 104.913C514.54 104.662 515.088 104.292 515.549 103.822C516.023 103.367 516.399 102.815 516.652 102.201C516.906 101.588 517.031 100.927 517.02 100.261V88.5634C517.012 87.2107 516.485 85.9156 515.553 84.9591C514.621 84.0026 513.358 83.4617 512.04 83.4538H468.22C442.026 83.4538 424.749 83.0582 416.39 82.2669C407.251 82.1662 398.332 79.3731 390.696 74.2203C385.41 68.917 382.377 61.6881 382.255 54.1036C381.961 51.066 381.814 47.5389 381.814 43.5223C381.814 39.385 381.961 35.7372 382.255 32.5789C382.524 29.5524 383.136 26.5684 384.079 23.6873C384.873 21.2115 385.883 18.8146 387.098 16.5258C388.334 14.358 389.98 12.4666 391.941 10.9636C393.978 9.32302 396.184 7.91651 398.519 6.76924C401.373 5.47402 404.354 4.49614 407.411 3.85233C411.083 3.00073 414.756 2.33017 418.429 1.84067C422.102 1.35116 426.71 0.9723 432.252 0.704079C437.794 0.429151 443.261 0.248103 448.653 0.160931C454.044 0.0737589 460.58 0.0268207 468.259 0.0201152C475.487 0.0201152 481.755 0.0670533 487.061 0.160931C492.368 0.254808 497.659 0.435857 502.933 0.704079C508.207 0.979006 512.697 1.34446 516.402 1.80044C520.108 2.25641 523.738 2.86326 527.294 3.62099C530.314 4.2208 533.269 5.12369 536.117 6.31662C538.468 7.3542 540.716 8.62063 542.832 10.0985C544.798 11.4281 546.525 13.0954 547.939 15.0271C549.308 16.994 550.443 19.1212 551.321 21.3638C552.325 23.8893 553.054 26.5202 553.498 29.2093C554.008 32.3765 554.306 35.5758 554.39 38.7848C554.431 39.4734 554.329 40.1631 554.091 40.8081C553.852 41.4532 553.483 42.0389 553.007 42.5265C552.546 43.0276 551.988 43.4242 551.368 43.6909C550.748 43.9577 550.081 44.0887 549.41 44.0755H520.255C518.955 44.0755 517.708 43.5456 516.789 42.6025C515.87 41.6593 515.353 40.3802 515.353 39.0464V37.7589C515.346 36.4062 514.819 35.1111 513.886 34.1546C512.954 33.1981 511.692 32.6572 510.373 32.6493H425.742C424.424 32.6572 423.162 33.1981 422.23 34.1546C421.297 35.1111 420.77 36.4062 420.762 37.7589V49.3461C420.77 50.6988 421.297 51.9938 422.23 52.9504C423.162 53.9069 424.424 54.4478 425.742 54.4557H468.141H468.161ZM608.787 3.56064C610.106 3.56856 611.368 4.10944 612.3 5.06597C613.233 6.02249 613.76 7.31755 613.768 8.67026V129.239C613.76 130.592 613.233 131.887 612.3 132.843C611.368 133.8 610.106 134.341 608.787 134.349H579.819C578.501 134.341 577.238 133.8 576.306 132.843C575.374 131.887 574.847 130.592 574.839 129.239V8.67026C574.847 7.31755 575.374 6.02249 576.306 5.06597C577.238 4.10944 578.501 3.56856 579.819 3.56064H608.787ZM720.083 54.4557C746.571 54.4557 764.054 54.8513 772.53 55.6426C781.904 55.7143 791.063 58.5304 798.93 63.7596C804.31 69.1045 807.411 76.4155 807.557 84.0975C807.872 87.5244 808.019 90.9653 807.998 94.4073C807.998 98.5446 807.851 102.192 807.557 105.351C807.288 108.377 806.676 111.361 805.734 114.242C804.931 116.735 803.904 119.146 802.665 121.444C801.42 123.623 799.752 125.516 797.764 127.006C795.691 128.62 793.472 130.025 791.136 131.201C788.263 132.536 785.25 133.532 782.157 134.168C778.443 135.016 774.691 135.67 770.913 136.129C767.148 136.585 762.452 136.964 756.825 137.266C751.198 137.567 745.614 137.765 740.072 137.859C734.53 137.953 727.847 138 720.024 138C712.495 138 706.094 137.953 700.82 137.859C695.546 137.765 690.154 137.598 684.645 137.356C679.135 137.115 674.56 136.78 670.92 136.35C667.28 135.921 663.591 135.345 659.852 134.62C656.751 134.077 653.712 133.208 650.784 132.025C648.412 130.989 646.136 129.737 643.981 128.284C641.956 126.983 640.192 125.296 638.785 123.315C637.437 121.296 636.29 119.143 635.364 116.888C634.301 114.331 633.541 111.653 633.099 108.911C632.59 105.683 632.292 102.424 632.207 99.1548C632.166 98.4662 632.268 97.7766 632.506 97.1315C632.745 96.4864 633.114 95.9007 633.59 95.4131C634.051 94.9121 634.609 94.5154 635.229 94.2487C635.848 93.982 636.516 93.851 637.187 93.8641H666.254C667.572 93.8721 668.834 94.4129 669.767 95.3695C670.699 96.326 671.226 97.621 671.234 98.9738V100.251C671.234 101.585 671.75 102.864 672.669 103.807C673.589 104.75 674.835 105.28 676.135 105.28H763.962C764.612 105.288 765.257 105.163 765.86 104.913C766.462 104.662 767.01 104.292 767.472 103.822C767.946 103.367 768.321 102.815 768.575 102.201C768.828 101.588 768.953 100.927 768.942 100.261V88.5634C768.934 87.2107 768.407 85.9156 767.475 84.9591C766.543 84.0026 765.281 83.4617 763.962 83.4538H720.142C693.948 83.4538 676.671 83.0582 668.312 82.2669C659.173 82.1662 650.255 79.3731 642.618 74.2203C637.332 68.917 634.299 61.6881 634.178 54.1036C633.884 51.066 633.737 47.5389 633.737 43.5223C633.737 39.385 633.884 35.7372 634.178 32.5789C634.447 29.5524 635.059 26.5684 636.001 23.6873C636.795 21.2115 637.805 18.8145 639.021 16.5258C640.256 14.358 641.903 12.4666 643.863 10.9636C645.9 9.32302 648.106 7.91651 650.441 6.76924C653.295 5.47402 656.276 4.49614 659.333 3.85233C663.006 3.00073 666.679 2.33017 670.351 1.84067C674.024 1.35116 678.632 0.9723 684.174 0.704079C689.716 0.429151 695.183 0.248103 700.575 0.160931C705.967 0.0737589 712.502 0.0268207 720.181 0.0201152C727.409 0.0201152 733.677 0.0670533 738.984 0.160931C744.29 0.254808 749.581 0.435857 754.855 0.704079C760.129 0.979006 764.619 1.34446 768.325 1.80044C772.03 2.25641 775.661 2.86326 779.216 3.62099C782.236 4.22074 785.191 5.12362 788.039 6.31662C790.39 7.35414 792.638 8.62058 794.754 10.0985C796.72 11.4281 798.447 13.0954 799.861 15.0271C801.23 16.9939 802.365 19.1212 803.243 21.3638C804.247 23.8893 804.977 26.5202 805.42 29.2093C805.93 32.3765 806.228 35.5758 806.312 38.7848C806.353 39.4734 806.251 40.1631 806.013 40.8081C805.774 41.4532 805.405 42.0389 804.93 42.5265C804.468 43.0276 803.91 43.4242 803.29 43.6909C802.671 43.9577 802.004 44.0887 801.332 44.0755H772.177C770.877 44.0755 769.63 43.5456 768.711 42.6025C767.792 41.6593 767.276 40.3802 767.276 39.0464V37.7589C767.268 36.4062 766.741 35.1111 765.808 34.1546C764.876 33.1981 763.614 32.6572 762.296 32.6493H677.665C676.346 32.6572 675.084 33.1981 674.152 34.1546C673.22 35.1111 672.692 36.4062 672.685 37.7589V49.3461C672.692 50.6988 673.22 51.9938 674.152 52.9504C675.084 53.9069 676.346 54.4478 677.665 54.4557H720.063H720.083Z" fill="#1F1F1F"/>
</svg>
