<svg width="82" height="14" viewBox="0 0 82 14" fill="none" xmlns="http://www.w3.org/2000/svg">
<path d="M6.64479 0.00918349C7.25233 0.00306105 8.03729 0 8.99967 0C9.96205 0 10.7453 0.00306105 11.3496 0.00918349C11.9538 0.0153059 12.5809 0.0445576 13.2309 0.0969386C13.8809 0.14932 14.3859 0.20034 14.7461 0.25C15.1312 0.304757 15.5084 0.407559 15.8693 0.556123C16.1696 0.667283 16.4558 0.814933 16.7219 0.995918C16.9478 1.18471 17.1388 1.4135 17.286 1.67143C17.4609 1.93866 17.5904 2.23434 17.669 2.54592C17.7294 2.81395 17.7911 3.20578 17.8541 3.72143C17.9135 4.20352 17.9467 4.68862 17.9536 5.17449C17.9595 5.62755 17.9625 6.23367 17.9625 6.99286C17.9625 7.75204 17.9595 8.35748 17.9536 8.80918C17.9465 9.29504 17.9133 9.78014 17.8541 10.2622C17.7877 10.7806 17.7261 11.1738 17.669 11.4418C17.5902 11.7539 17.4621 12.0507 17.29 12.3204C17.147 12.5798 16.9572 12.8091 16.7309 12.9959C16.4634 13.1745 16.1775 13.322 15.8783 13.4357C15.5183 13.5871 15.1408 13.69 14.755 13.7418C14.3942 13.7881 13.8892 13.8391 13.2398 13.8949C12.5905 13.9507 11.9604 13.9816 11.3496 13.9878C10.742 13.9939 9.95707 13.9969 8.99469 13.9969C8.03231 13.9969 7.24735 13.9939 6.63981 13.9878C6.03227 13.9816 5.40219 13.9524 4.74955 13.9C4.09691 13.8476 3.59018 13.7966 3.22937 13.7469C2.84226 13.6912 2.46355 13.5856 2.10218 13.4327C1.80214 13.3192 1.516 13.1702 1.24956 12.9888C1.0244 12.8012 0.833414 12.5743 0.685466 12.3184C0.509347 12.0512 0.378192 11.7556 0.297464 11.4439C0.215011 11.0542 0.151934 10.6605 0.10845 10.2643C0.0490506 9.7822 0.0158307 9.2971 0.00895657 8.81122C0.0029873 8.35816 0 7.75204 0 6.99286C0 6.23367 0.0029873 5.62925 0.00895657 5.17959C0.0171974 4.69347 0.0534012 4.20827 0.117392 3.72653C0.183717 3.21429 0.246728 2.82109 0.306421 2.54694C0.38328 2.23345 0.512911 1.93613 0.689459 1.66837C0.837407 1.41248 1.02839 1.1855 1.25356 0.997959C1.52227 0.816021 1.81158 0.668335 2.11512 0.558163C2.47929 0.410298 2.85937 0.307531 3.24729 0.252041C3.6081 0.202381 4.11316 0.15136 4.76248 0.0989792C5.41181 0.0465983 6.03924 0.0166665 6.64479 0.00918349ZM13.5194 10.6776C13.6513 10.6776 13.7778 10.6238 13.8711 10.5281C13.9644 10.4324 14.0168 10.3027 14.0168 10.1673V3.83061C14.0176 3.76295 14.0052 3.69581 13.9805 3.63309C13.9557 3.57038 13.919 3.51334 13.8726 3.46531C13.8275 3.41598 13.773 3.37687 13.7123 3.35051C13.6516 3.32414 13.5863 3.31111 13.5204 3.31224H4.46701C4.33321 3.31305 4.20512 3.36792 4.1105 3.46496C4.01589 3.562 3.96238 3.69338 3.9616 3.83061V10.1694C3.96049 10.2369 3.97321 10.304 3.99891 10.3662C4.02461 10.4284 4.06274 10.4844 4.11084 10.5306C4.15767 10.5783 4.21328 10.6159 4.27442 10.6413C4.33557 10.6667 4.40104 10.6794 4.46701 10.6786L13.5194 10.6776ZM33.98 13.6296C33.889 13.6333 33.7989 13.6099 33.7205 13.5623C33.6422 13.5147 33.5789 13.4449 33.5383 13.3612L32.6718 11.7143C32.6312 11.6306 32.5679 11.5608 32.4895 11.5132C32.4112 11.4656 32.3211 11.4422 32.23 11.4459H24.2104C24.1193 11.4422 24.0292 11.4656 23.9509 11.5132C23.8725 11.5608 23.8092 11.6306 23.7686 11.7143L22.9021 13.3612C22.8615 13.4449 22.7982 13.5147 22.7199 13.5623C22.6415 13.6099 22.5514 13.6333 22.4604 13.6296H19.1852C19.0978 13.631 19.0117 13.6087 18.9353 13.565C18.859 13.5214 18.7953 13.4579 18.7505 13.3809C18.7057 13.3039 18.6815 13.2162 18.6803 13.1266C18.679 13.037 18.7008 12.9486 18.7435 12.8704L25.2102 0.637755C25.2506 0.553282 25.3136 0.482331 25.3918 0.433186C25.47 0.384041 25.5602 0.358728 25.6519 0.360204H30.7855C30.8772 0.358605 30.9675 0.383866 31.0457 0.433025C31.124 0.482184 31.1869 0.553204 31.2272 0.637755L37.6939 12.8704C37.7366 12.9486 37.7584 13.037 37.7572 13.1266C37.7559 13.2162 37.7317 13.3039 37.6869 13.3809C37.6421 13.4579 37.5784 13.5214 37.5021 13.565C37.4258 13.6087 37.3396 13.631 37.2522 13.6296H33.98ZM25.8788 7.73571C25.8379 7.81477 25.8175 7.90324 25.8195 7.99267C25.8215 8.0821 25.8458 8.16952 25.8902 8.24658C25.9345 8.32364 25.9973 8.38777 26.0726 8.43285C26.1479 8.47793 26.2333 8.50245 26.3205 8.50408H30.1279C30.2151 8.50245 30.3004 8.47793 30.3758 8.43285C30.4511 8.38777 30.5139 8.32364 30.5582 8.24658C30.6025 8.16952 30.6268 8.0821 30.6288 7.99267C30.6308 7.90324 30.6104 7.81477 30.5696 7.73571L28.6654 4.13571C28.6219 4.05442 28.5579 3.9866 28.4801 3.93937C28.4023 3.89213 28.3136 3.86721 28.2232 3.86721C28.1328 3.86721 28.044 3.89213 27.9662 3.93937C27.8884 3.9866 27.8244 4.05442 27.781 4.13571L25.8788 7.73571ZM47.5114 5.52449C50.1995 5.52449 51.9737 5.56463 52.834 5.6449C53.7853 5.65218 54.7147 5.93786 55.5132 6.46837C56.0591 7.0106 56.3739 7.7523 56.3887 8.53163C56.4207 8.87928 56.4356 9.22836 56.4334 9.57755C56.4334 9.99728 56.4185 10.3673 56.3887 10.6878C56.3614 10.9948 56.2993 11.2975 56.2036 11.5898C56.1222 11.8427 56.0179 12.0873 55.8922 12.3204C55.7659 12.5415 55.5966 12.7336 55.3948 12.8847C55.1845 13.0484 54.9592 13.1909 54.7222 13.3102C54.4306 13.4457 54.1249 13.5467 53.8109 13.6112C53.4341 13.6972 53.0532 13.7637 52.6698 13.8102C52.2878 13.8565 51.8112 13.8949 51.2402 13.9255C50.6691 13.9561 50.1024 13.9762 49.5399 13.9857C48.9775 13.9952 48.2993 14 47.5054 14C46.7413 14 46.0917 13.9952 45.5564 13.9857C45.0212 13.9762 44.474 13.9592 43.9149 13.9347C43.3558 13.9102 42.8915 13.8762 42.5221 13.8327C42.1526 13.7891 41.7782 13.7306 41.3988 13.6571C41.0841 13.602 40.7757 13.5138 40.4786 13.3939C40.2379 13.2887 40.0068 13.1617 39.7881 13.0143C39.5826 12.8823 39.4036 12.7112 39.2609 12.5102C39.124 12.3054 39.0077 12.0869 38.9136 11.8582C38.8058 11.5988 38.7286 11.3272 38.6838 11.049C38.6321 10.7215 38.6019 10.3908 38.5933 10.0592C38.5891 9.98933 38.5995 9.91936 38.6236 9.85392C38.6478 9.78848 38.6853 9.72906 38.7336 9.67959C38.7804 9.62876 38.8371 9.58852 38.8999 9.56146C38.9628 9.5344 39.0305 9.52111 39.0987 9.52245H42.0485C42.1823 9.52325 42.3104 9.57812 42.405 9.67516C42.4996 9.7722 42.5531 9.90358 42.5539 10.0408V10.1704C42.5539 10.3057 42.6063 10.4355 42.6996 10.5312C42.7929 10.6269 42.9194 10.6806 43.0513 10.6806H51.9644C52.0304 10.6814 52.0959 10.6687 52.157 10.6433C52.2182 10.6179 52.2738 10.5803 52.3206 10.5327C52.3687 10.4865 52.4068 10.4305 52.4325 10.3683C52.4582 10.306 52.471 10.239 52.4698 10.1714V8.98469C52.4691 8.84746 52.4156 8.71608 52.321 8.61904C52.2263 8.522 52.0982 8.46713 51.9644 8.46633H47.5174C44.859 8.46633 43.1057 8.42619 42.2574 8.34592C41.3299 8.3357 40.4248 8.05235 39.6499 7.52959C39.1134 6.99158 38.8056 6.25821 38.7933 5.48878C38.7634 5.18061 38.7485 4.82279 38.7485 4.41531C38.7485 3.99558 38.7634 3.62551 38.7933 3.3051C38.8206 2.99807 38.8827 2.69534 38.9783 2.40306C39.0589 2.15189 39.1614 1.90872 39.2847 1.67653C39.4101 1.45661 39.5772 1.26472 39.7762 1.11224C39.9829 0.945813 40.2068 0.803125 40.4438 0.686735C40.7334 0.555335 41.0359 0.45613 41.3461 0.390816C41.7189 0.304422 42.0916 0.236394 42.4644 0.186734C42.8371 0.137074 43.3047 0.0986391 43.8671 0.0714283C44.4296 0.0435371 44.9844 0.0251699 45.5316 0.0163263C46.0788 0.00748278 46.742 0.00272094 47.5213 0.00204067C48.2549 0.00204067 48.8909 0.00680251 49.4295 0.0163263C49.9681 0.0258501 50.505 0.0442174 51.0402 0.0714283C51.5755 0.0993194 52.0311 0.136394 52.4072 0.182653C52.7832 0.228911 53.1517 0.290476 53.5125 0.367347C53.819 0.428197 54.1189 0.519794 54.4079 0.640816C54.6465 0.746078 54.8747 0.874557 55.0894 1.02449C55.2889 1.15937 55.4642 1.32851 55.6077 1.52449C55.7466 1.72403 55.8618 1.93984 55.9509 2.16735C56.0528 2.42355 56.1268 2.69046 56.1718 2.96327C56.2236 3.28457 56.2538 3.60914 56.2623 3.93469C56.2665 4.00455 56.2561 4.07451 56.232 4.13996C56.2078 4.2054 56.1703 4.26482 56.122 4.31429C56.0752 4.36512 56.0185 4.40535 55.9557 4.43241C55.8928 4.45948 55.8251 4.47276 55.7569 4.47143H52.7982C52.6662 4.47143 52.5397 4.41767 52.4464 4.32199C52.3531 4.22631 52.3007 4.09654 52.3007 3.96122V3.83061C52.2999 3.69338 52.2464 3.562 52.1518 3.46496C52.0572 3.36792 51.9291 3.31305 51.7953 3.31224H43.2065C43.0727 3.31305 42.9446 3.36792 42.85 3.46496C42.7554 3.562 42.7019 3.69338 42.7011 3.83061V5.00612C42.7019 5.14335 42.7554 5.27474 42.85 5.37178C42.9446 5.46882 43.0727 5.52369 43.2065 5.52449H47.5094H47.5114ZM61.7829 0.361224C61.9167 0.362027 62.0448 0.416899 62.1394 0.513938C62.234 0.610978 62.2875 0.74236 62.2883 0.879592V13.1112C62.2875 13.2485 62.234 13.3798 62.1394 13.4769C62.0448 13.5739 61.9167 13.6288 61.7829 13.6296H58.843C58.7092 13.6288 58.5811 13.5739 58.4865 13.4769C58.3919 13.3798 58.3384 13.2485 58.3376 13.1112V0.879592C58.3384 0.74236 58.3919 0.610978 58.4865 0.513938C58.5811 0.416899 58.7092 0.362027 58.843 0.361224H61.7829ZM73.0777 5.52449C75.7659 5.52449 77.5401 5.56463 78.4003 5.6449C79.3516 5.65218 80.2811 5.93786 81.0795 6.46837C81.6255 7.0106 81.9402 7.7523 81.955 8.53163C81.987 8.87928 82.002 9.22836 81.9998 9.57755C81.9998 9.99728 81.9849 10.3673 81.955 10.6878C81.9277 10.9948 81.8656 11.2975 81.77 11.5898C81.6886 11.8427 81.5843 12.0873 81.4586 12.3204C81.3322 12.5415 81.1629 12.7336 80.9612 12.8847C80.7508 13.0484 80.5256 13.1909 80.2886 13.3102C79.997 13.4457 79.6912 13.5467 79.3773 13.6112C79.0004 13.6972 78.6196 13.7637 78.2362 13.8102C77.8542 13.8565 77.3776 13.8949 76.8065 13.9255C76.2355 13.9561 75.6687 13.9762 75.1063 13.9857C74.5439 13.9952 73.8657 14 73.0718 14C72.3077 14 71.658 13.9952 71.1228 13.9857C70.5876 13.9762 70.0404 13.9592 69.4813 13.9347C68.9221 13.9102 68.4579 13.8762 68.0884 13.8327C67.719 13.7891 67.3446 13.7306 66.9652 13.6571C66.6505 13.602 66.3421 13.5138 66.045 13.3939C65.8042 13.2887 65.5732 13.1617 65.3545 13.0143C65.149 12.8823 64.97 12.7112 64.8272 12.5102C64.6904 12.3054 64.574 12.087 64.48 11.8582C64.3721 11.5988 64.295 11.3272 64.2502 11.049C64.1985 10.7215 64.1682 10.3908 64.1597 10.0592C64.1555 9.98933 64.1658 9.91936 64.19 9.85392C64.2142 9.78848 64.2517 9.72906 64.2999 9.67959C64.3468 9.62876 64.4034 9.58852 64.4663 9.56146C64.5292 9.5344 64.5969 9.52111 64.6651 9.52245H67.6149C67.7487 9.52325 67.8768 9.57812 67.9714 9.67516C68.066 9.7722 68.1195 9.90358 68.1203 10.0408V10.1704C68.1203 10.3057 68.1727 10.4355 68.266 10.5312C68.3592 10.6269 68.4858 10.6806 68.6177 10.6806H77.5308C77.5968 10.6814 77.6622 10.6687 77.7234 10.6433C77.7845 10.6179 77.8402 10.5803 77.887 10.5327C77.9351 10.4865 77.9732 10.4305 77.9989 10.3683C78.0246 10.306 78.0373 10.239 78.0362 10.1714V8.98469C78.0354 8.84746 77.9819 8.71608 77.8873 8.61904C77.7927 8.522 77.6646 8.46713 77.5308 8.46633H73.0837C70.4254 8.46633 68.6721 8.42619 67.8238 8.34592C66.8963 8.3357 65.9912 8.05235 65.2162 7.52959C64.6798 6.99158 64.372 6.25821 64.3596 5.48878C64.3298 5.18061 64.3148 4.82279 64.3148 4.41531C64.3148 3.99558 64.3298 3.62551 64.3596 3.3051C64.3869 2.99807 64.449 2.69534 64.5447 2.40306C64.6252 2.15189 64.7278 1.90872 64.8511 1.67653C64.9765 1.45661 65.1436 1.26472 65.3426 1.11224C65.5493 0.945813 65.7731 0.803125 66.0101 0.686735C66.2998 0.555335 66.6023 0.45613 66.9125 0.390816C67.2852 0.304422 67.658 0.236394 68.0307 0.186734C68.4035 0.137074 68.8711 0.0986391 69.4335 0.0714283C69.9959 0.0435371 70.5508 0.0251699 71.0979 0.0163263C71.6451 0.00748278 72.3084 0.00272094 73.0877 0.00204067C73.8212 0.00204067 74.4573 0.00680251 74.9959 0.0163263C75.5344 0.0258501 76.0713 0.0442174 76.6066 0.0714283C77.1418 0.0993194 77.5975 0.136394 77.9735 0.182653C78.3496 0.228911 78.718 0.290476 79.0788 0.367347C79.3853 0.428191 79.6852 0.519788 79.9742 0.640816C80.2128 0.746072 80.441 0.874551 80.6557 1.02449C80.8552 1.15937 81.0306 1.32851 81.174 1.52449C81.313 1.72402 81.4282 1.93983 81.5173 2.16735C81.6191 2.42355 81.6932 2.69046 81.7381 2.96327C81.7899 3.28457 81.8202 3.60914 81.8287 3.93469C81.8329 4.00455 81.8225 4.07451 81.7983 4.13996C81.7741 4.2054 81.7367 4.26482 81.6884 4.31429C81.6416 4.36512 81.5849 4.40535 81.522 4.43241C81.4592 4.45948 81.3915 4.47276 81.3233 4.47143H78.3645C78.2326 4.47143 78.1061 4.41767 78.0128 4.32199C77.9195 4.22631 77.8671 4.09654 77.8671 3.96122V3.83061C77.8663 3.69338 77.8128 3.562 77.7182 3.46496C77.6236 3.36792 77.4955 3.31305 77.3617 3.31224H68.7729C68.6391 3.31305 68.511 3.36792 68.4164 3.46496C68.3218 3.562 68.2683 3.69338 68.2675 3.83061V5.00612C68.2683 5.14335 68.3218 5.27474 68.4164 5.37178C68.511 5.46882 68.6391 5.52369 68.7729 5.52449H73.0757H73.0777Z" fill="white"/>
</svg>
