<svg width="25" height="24" viewBox="0 0 25 24" fill="none" xmlns="http://www.w3.org/2000/svg">
<path d="M14.75 16.5L14.75 18.75C14.75 18.9489 14.671 19.1397 14.5303 19.2803C14.3897 19.421 14.1989 19.5 14 19.5L5 19.5C4.80109 19.5 4.61032 19.421 4.46967 19.2803C4.32902 19.1397 4.25 18.9489 4.25 18.75L4.25 5.25C4.25 5.05109 4.32902 4.86032 4.46967 4.71967C4.61032 4.57902 4.80109 4.5 5 4.5L14 4.5C14.1989 4.5 14.3897 4.57902 14.5303 4.71967C14.671 4.86032 14.75 5.05109 14.75 5.25L14.75 7.5" fill="white"/>
<path d="M14.75 16.5L14.75 18.75C14.75 18.9489 14.671 19.1397 14.5303 19.2803C14.3897 19.421 14.1989 19.5 14 19.5L5 19.5C4.80109 19.5 4.61032 19.421 4.46967 19.2803C4.32902 19.1397 4.25 18.9489 4.25 18.75L4.25 5.25C4.25 5.05109 4.32902 4.86032 4.46967 4.71967C4.61032 4.57902 4.80109 4.5 5 4.5L14 4.5C14.1989 4.5 14.3897 4.57902 14.5303 4.71967C14.671 4.86032 14.75 5.05109 14.75 5.25L14.75 7.5" stroke="#BABABA" stroke-width="2" stroke-linecap="round" stroke-linejoin="round"/>
<path d="M18.5 8.25L22.25 12L18.5 15.75" stroke="#BABABA" stroke-width="2" stroke-linecap="round" stroke-linejoin="round"/>
<path d="M22.25 12L11.75 12" stroke="#BABABA" stroke-width="2" stroke-linecap="round" stroke-linejoin="round"/>
</svg>
