<svg width="111" height="26" viewBox="0 0 111 26" fill="none" xmlns="http://www.w3.org/2000/svg">
<mask id="mask0_557_6080" style="mask-type:luminance" maskUnits="userSpaceOnUse" x="0" y="0" width="111" height="26">
<path d="M111 0H0V26H111V0Z" fill="white"/>
</mask>
<g mask="url(#mask0_557_6080)">
<path d="M50.8388 21.8204C51.7681 20.7692 52.5407 19.4723 52.5407 17.1372L52.5465 7.65849C52.5465 5.15932 50.4327 4.45801 47.5363 4.45801C40.1965 4.45801 35.8341 7.70849 35.8341 9.9749C35.8341 11.6025 36.96 12.4679 38.3892 12.4679C40.8354 12.4679 41.4324 9.48598 41.7956 8.22068C42.0543 7.31913 42.9607 6.14696 44.7397 6.14696C46.3882 6.14696 46.7786 6.56628 46.7786 7.98159V9.86582L42.5369 12.6689L39.6628 14.3792C37.7225 15.5344 35.1733 17.4569 35.1733 20.6784C35.1733 23.8998 37.5827 26 40.5489 26C43.8149 26 45.8453 23.8684 46.7786 22.5555V25.9641H55.2817V25.9596H55.3009V24.4679H48.0992L50.8388 21.8204ZM46.7786 20.5692C46.4344 21.3458 45.752 22.3185 44.1317 22.3185C42.5732 22.3185 41.3272 21.3017 41.3272 18.6554C41.3272 16.306 42.1131 15.0878 43.0122 14.0474L46.7788 11.5583V20.1177L46.7786 20.5692Z" fill="black"/>
<path d="M31.3634 21.4737V8.9452C31.3634 6.99692 30.5926 4.45529 27.1262 4.45529C23.7638 4.45529 21.4535 6.01773 19.8281 7.4049C19.4452 5.87472 18.3602 4.45529 15.7699 4.45529C12.5533 4.45529 10.1504 5.9693 8.6453 7.25679V4.99304H0V6.49671H7.31836L4.58505 9.1369C3.65576 10.1881 2.88316 11.5445 2.88316 13.2419V25.9633H8.64535V9.20068C9.53033 8.38071 10.7046 7.14833 12.1209 7.14833C13.5279 7.14833 14.2443 7.55184 14.2443 8.94497V25.9633L19.9978 25.9643L20.0072 9.57026C20.0072 9.44957 20.0042 9.32634 19.9978 9.20177C20.8834 8.3831 22.0598 7.14856 23.4769 7.14856C24.8829 7.14856 25.6004 7.55261 25.6004 8.9452L25.778 25.9643H31.3635" fill="black"/>
<path d="M76.9827 4.99749H74.2274V0.000183105H74.0086L68.6273 4.99767H66.8653V5.00494H66.8552V6.49691H72.6175L70.1663 9.14085C69.2512 10.1759 68.488 11.5074 68.4654 13.1684V26.054H74.2274V6.49673H76.9952V5.00476H76.9827V4.99749Z" fill="black"/>
<path d="M108.372 4.44278V4.44301C106.477 4.44301 105.279 6.35664 104.409 7.86356L103.921 8.65688V5.00479V4.99304H95.2761V5.44262H95.2811V6.49671H102.594L99.8612 9.1369C98.9319 10.1881 98.1592 11.5445 98.1592 13.2419V25.9472H103.921V11.0715L105.585 8.36305L105.581 8.3607C105.653 8.34667 105.725 8.33971 105.797 8.33992C106.911 8.33992 107.378 8.98743 108.91 8.98743C110.312 8.98743 111 7.72787 111 6.70797C111 5.83068 110.383 4.44296 108.372 4.44296" fill="black"/>
<path d="M65.6581 4.99749H62.9028V0.000183105H62.684L57.3027 4.99767H55.5407V5.00494H55.5393V6.49691H61.293L58.8419 9.14085C57.9267 10.1759 57.1635 11.5074 57.1409 13.1684V26.0805H62.903V6.49673H65.6622V5.00476H65.6582L65.6581 4.99749Z" fill="black"/>
<path d="M89.9285 21.1561C87.1518 21.1561 82.3516 19.3833 82.3516 12.7874C82.3503 12.1321 82.3993 11.9294 82.4979 11.2818H94.5995V10.5354C94.5995 10.4933 94.5959 10.4513 94.5889 10.4098V10.033C94.2741 7.35856 91.9742 4.45755 87.6336 4.45755C83.1473 4.45755 77.6296 7.74864 77.6296 15.6971C77.6296 22.8401 81.8447 26 86.7508 26C90.8109 26 93.8209 22.1019 94.614 20.1908L94.3254 20.0088C93.7423 20.5011 91.9298 21.1561 89.9286 21.1561M86.689 5.68911V6.14081C88.3613 6.14081 89.2364 7.00916 89.284 9.78988H82.7093C83.4402 6.95654 85.1656 6.14081 86.6889 6.14081" fill="black"/>
</g>
</svg>
