<svg width="121" height="28" viewBox="0 0 121 28" fill="none" xmlns="http://www.w3.org/2000/svg">
<rect width="121" height="28" fill="#EEEEEE"/>
<g clip-path="url(#clip0_476_19997)">
<rect width="1512" height="925" transform="translate(-38 -13)" fill="white"/>
<rect x="-38" y="-13" width="1512" height="56" fill="white"/>
<g clip-path="url(#clip1_476_19997)">
<mask id="mask0_476_19997" style="mask-type:luminance" maskUnits="userSpaceOnUse" x="0" y="0" width="121" height="28">
<path d="M121 0H0V28H121V0Z" fill="white"/>
</mask>
<g mask="url(#mask0_476_19997)">
<path d="M55.4186 23.4989C56.4316 22.3668 57.2738 20.9702 57.2738 18.4554L57.2801 8.24764C57.2801 5.55622 54.9759 4.80096 51.8185 4.80096C43.8175 4.80096 39.0621 8.30149 39.0621 10.7422C39.0621 12.4951 40.2894 13.427 41.8474 13.427C44.514 13.427 45.1647 10.2157 45.5606 8.85307C45.8427 7.88217 46.8308 6.61984 48.77 6.61984C50.567 6.61984 50.9926 7.07141 50.9926 8.59559V10.6248L46.3688 13.6435L43.2357 15.4853C41.1206 16.7294 38.3418 18.7998 38.3418 22.269C38.3418 25.7383 40.9683 28 44.2016 28C47.7618 28 49.9752 25.7045 50.9925 24.2906V27.9614H60.2617V27.9565H60.2826V26.35H52.4321L55.4186 23.4989ZM50.9926 22.1515C50.6174 22.9878 49.8735 24.0353 48.1072 24.0353C46.4083 24.0353 45.0501 22.9403 45.0501 20.0905C45.0501 17.5604 45.9068 16.2485 46.8869 15.128L50.9928 12.4474V21.6653L50.9926 22.1515Z" fill="black"/>
<path d="M34.189 23.1255V9.63332C34.189 7.53518 33.3487 4.79803 29.57 4.79803C25.9046 4.79803 23.3863 6.48066 21.6144 7.97453C21.197 6.32665 20.0143 4.79803 17.1907 4.79803C13.6842 4.79803 11.0649 6.42851 9.42416 7.81503V5.37715H0V6.99648H7.97768L4.99812 9.83977C3.98511 10.9719 3.1429 12.4325 3.1429 14.2605V27.9605H9.42421V9.90845C10.3889 9.02541 11.669 7.69823 13.2129 7.69823C14.7467 7.69823 15.5276 8.13278 15.5276 9.63308V27.9605L21.7995 27.9616L21.8097 10.3065C21.8097 10.1765 21.8064 10.0438 21.7995 9.90962C22.7648 9.02798 24.0472 7.69848 25.592 7.69848C27.1246 7.69848 27.9067 8.1336 27.9067 9.63332L28.1003 27.9616H34.189" fill="black"/>
<path d="M83.9182 5.3819H80.9148V0.000183105H80.6762L74.8101 5.38209H72.8894V5.38992H72.8784V6.99666H79.1598L76.4878 9.84398C75.4902 10.9586 74.6583 12.3926 74.6337 14.1813V28.0581H80.9148V6.99646H83.9319V5.38973H83.9182V5.3819Z" fill="black"/>
<path d="M118.135 4.78455V4.78479C116.069 4.78479 114.764 6.84562 113.815 8.46846L113.283 9.32281V5.38978V5.37714H103.859V5.8613H103.865V6.99647H111.837L108.858 9.83975C107.844 10.9719 107.002 12.4325 107.002 14.2605V27.9431H113.283V11.9232L115.097 9.00637L115.093 9.00384C115.171 8.98873 115.249 8.98124 115.328 8.98147C116.543 8.98147 117.051 9.67879 118.721 9.67879C120.249 9.67879 121 8.32233 121 7.22398C121 6.2792 120.327 4.78474 118.135 4.78474" fill="black"/>
<path d="M71.5733 5.38189H68.5699V0.000183105H68.3313L62.4652 5.38209H60.5445V5.38992H60.543V6.99666H66.815L64.1431 9.84398C63.1455 10.9586 62.3135 12.3926 62.2889 14.1813V28.0866H68.5701V6.99646H71.5778V5.38973H71.5735L71.5733 5.38189Z" fill="black"/>
<path d="M98.0299 22.7836C95.0031 22.7836 89.7704 20.8744 89.7704 13.7711C89.769 13.0654 89.8224 12.8471 89.9299 12.1497H103.122V11.3459C103.122 11.3005 103.118 11.2553 103.11 11.2106V10.8048C102.767 7.92464 100.26 4.80048 95.5282 4.80048C90.6378 4.80048 84.623 8.34473 84.623 16.9046C84.623 24.5971 89.2178 28.0001 94.5659 28.0001C98.9918 28.0001 102.273 23.802 103.138 21.744L102.823 21.5479C102.187 22.0782 100.211 22.7835 98.03 22.7835M94.4985 6.12677V6.61322C96.3215 6.61322 97.2755 7.54837 97.3273 10.543H90.1603C90.957 7.4917 92.8379 6.61322 94.4984 6.61322" fill="black"/>
</g>
</g>
</g>
<defs>
<clipPath id="clip0_476_19997">
<rect width="1512" height="925" fill="white" transform="translate(-38 -13)"/>
</clipPath>
<clipPath id="clip1_476_19997">
<rect width="121" height="28" fill="white"/>
</clipPath>
</defs>
</svg>
