<svg width="19" height="14" viewBox="0 0 19 14" fill="none" xmlns="http://www.w3.org/2000/svg">
<path id="Path 457" d="M18.9311 10.4728V2.76302C18.9311 1.56408 18.4658 0 16.3735 0C14.3439 0 12.9494 0.961497 11.9683 1.81514C11.7372 0.873492 11.0823 0 9.5188 0C7.57722 0 6.12683 0.931699 5.21834 1.724V0.330923H0V1.25626H4.41739L2.76756 2.88099C2.20663 3.52791 1.74028 4.36257 1.74028 5.40712V13.2357H5.21836V2.92024C5.75254 2.41564 6.46135 1.65726 7.31621 1.65726C8.1655 1.65726 8.59792 1.90557 8.59792 2.76288V13.2357L12.0708 13.2363L12.0764 3.14768C12.0764 3.0734 12.0746 2.99757 12.0708 2.92091C12.6053 2.41711 13.3154 1.6574 14.1708 1.6574C15.0194 1.6574 15.4525 1.90604 15.4525 2.76302L15.5597 13.2363H18.9311" fill="black"/>
</svg>
