<svg width="18" height="14" viewBox="0 0 18 14" fill="none" xmlns="http://www.w3.org/2000/svg">
<path d="M6.64479 0.00918349C7.25233 0.00306105 8.03729 0 8.99967 0C9.96205 0 10.7453 0.00306105 11.3496 0.00918349C11.9538 0.0153059 12.5809 0.0445576 13.2309 0.0969386C13.8809 0.14932 14.3859 0.20034 14.7461 0.25C15.1312 0.304757 15.5084 0.407559 15.8693 0.556123C16.1696 0.667283 16.4558 0.814933 16.7219 0.995918C16.9478 1.18471 17.1388 1.4135 17.286 1.67143C17.4609 1.93866 17.5904 2.23434 17.669 2.54592C17.7294 2.81395 17.7911 3.20578 17.8541 3.72143C17.9135 4.20352 17.9467 4.68862 17.9536 5.17449C17.9595 5.62755 17.9625 6.23367 17.9625 6.99286C17.9625 7.75204 17.9595 8.35748 17.9536 8.80918C17.9465 9.29504 17.9133 9.78014 17.8541 10.2622C17.7877 10.7806 17.7261 11.1738 17.669 11.4418C17.5902 11.7539 17.4621 12.0507 17.29 12.3204C17.147 12.5798 16.9572 12.8091 16.7309 12.9959C16.4634 13.1745 16.1775 13.322 15.8783 13.4357C15.5183 13.5871 15.1408 13.69 14.755 13.7418C14.3942 13.7881 13.8892 13.8391 13.2398 13.8949C12.5905 13.9507 11.9604 13.9816 11.3496 13.9878C10.742 13.9939 9.95707 13.9969 8.99469 13.9969C8.03231 13.9969 7.24735 13.9939 6.63981 13.9878C6.03227 13.9816 5.40219 13.9524 4.74955 13.9C4.09691 13.8476 3.59018 13.7966 3.22937 13.7469C2.84226 13.6912 2.46355 13.5856 2.10218 13.4327C1.80214 13.3192 1.516 13.1702 1.24956 12.9888C1.0244 12.8012 0.833414 12.5743 0.685466 12.3184C0.509347 12.0512 0.378192 11.7556 0.297464 11.4439C0.215011 11.0542 0.151934 10.6605 0.10845 10.2643C0.0490506 9.7822 0.0158307 9.2971 0.00895657 8.81122C0.0029873 8.35816 0 7.75204 0 6.99286C0 6.23367 0.0029873 5.62925 0.00895657 5.17959C0.0171974 4.69347 0.0534012 4.20827 0.117392 3.72653C0.183717 3.21429 0.246728 2.82109 0.306421 2.54694C0.38328 2.23345 0.512911 1.93613 0.689459 1.66837C0.837407 1.41248 1.02839 1.1855 1.25356 0.997959C1.52227 0.816021 1.81158 0.668335 2.11512 0.558163C2.47929 0.410298 2.85937 0.307531 3.24729 0.252041C3.6081 0.202381 4.11316 0.15136 4.76248 0.0989792C5.41181 0.0465983 6.03924 0.0166665 6.64479 0.00918349ZM13.5194 10.6776C13.6513 10.6776 13.7778 10.6238 13.8711 10.5281C13.9644 10.4324 14.0168 10.3027 14.0168 10.1673V3.83061C14.0176 3.76295 14.0052 3.69581 13.9805 3.63309C13.9557 3.57038 13.919 3.51334 13.8726 3.46531C13.8275 3.41598 13.773 3.37687 13.7123 3.35051C13.6516 3.32414 13.5863 3.31111 13.5204 3.31224H4.46701C4.33321 3.31305 4.20512 3.36792 4.1105 3.46496C4.01589 3.562 3.96238 3.69338 3.9616 3.83061V10.1694C3.96049 10.2369 3.97321 10.304 3.99891 10.3662C4.02461 10.4284 4.06274 10.4844 4.11084 10.5306C4.15767 10.5783 4.21328 10.6159 4.27442 10.6413C4.33557 10.6667 4.40104 10.6794 4.46701 10.6786L13.5194 10.6776Z" fill="black"/>
</svg>
