<svg width="24" height="24" viewBox="0 0 24 24" fill="none" xmlns="http://www.w3.org/2000/svg">
<path d="M4.5 4.5H19.5C20.5312 4.5 21.375 5.34375 21.375 6.375V17.625C21.375 18.6562 20.5312 19.5 19.5 19.5H4.5C3.46875 19.5 2.625 18.6562 2.625 17.625V6.375C2.625 5.34375 3.46875 4.5 4.5 4.5Z" fill="white"/>
<path d="M21.375 6.375L12 12.9375L2.625 6.375" fill="white"/>
<path d="M21.375 6.375C21.375 5.34375 20.5313 4.5 19.5 4.5H4.5C3.46875 4.5 2.625 5.34375 2.625 6.375M21.375 6.375V17.625C21.375 18.6563 20.5313 19.5 19.5 19.5H4.5C3.46875 19.5 2.625 18.6563 2.625 17.625V6.375M21.375 6.375L12 12.9375L2.625 6.375" stroke="#6DB2C1" stroke-linecap="round" stroke-linejoin="round"/>
</svg>
