<svg width="24" height="24" viewBox="0 0 24 24" fill="none" xmlns="http://www.w3.org/2000/svg">
<path d="M21.3736 16.6126V19.4251C21.3747 19.6862 21.3212 19.9446 21.2166 20.1839C21.112 20.4231 20.9586 20.6378 20.7662 20.8143C20.5738 20.9908 20.3467 21.1252 20.0993 21.2089C19.852 21.2925 19.5899 21.3236 19.3299 21.3001C16.445 20.9866 13.6739 20.0009 11.2392 18.422C8.97409 16.9826 7.05363 15.0621 5.61425 12.797C4.02985 10.3512 3.04385 7.56665 2.73613 4.66884C2.7127 4.40959 2.74351 4.1483 2.82659 3.90161C2.90968 3.65492 3.04322 3.42824 3.21872 3.23599C3.39421 3.04373 3.60782 2.89013 3.84593 2.78496C4.08404 2.67978 4.34144 2.62534 4.60175 2.62509H7.41425C7.86922 2.62061 8.3103 2.78173 8.65528 3.0784C9.00025 3.37508 9.22557 3.78707 9.28925 4.23759C9.40796 5.13765 9.62811 6.0214 9.9455 6.87197C10.0716 7.20752 10.0989 7.5722 10.0242 7.92279C9.94939 8.27338 9.77568 8.59519 9.52362 8.85009L8.333 10.0407C9.66758 12.3878 11.6109 14.3311 13.958 15.6657L15.1486 14.4751C15.4035 14.223 15.7253 14.0493 16.0759 13.9746C16.4265 13.8998 16.7912 13.9271 17.1267 14.0532C17.9773 14.3706 18.8611 14.5908 19.7611 14.7095C20.2165 14.7737 20.6324 15.0031 20.9297 15.354C21.2271 15.7049 21.385 16.1528 21.3736 16.6126Z" fill="white"/>
</svg>
