<svg width="25" height="25" viewBox="0 0 25 25" fill="none" xmlns="http://www.w3.org/2000/svg">
<path d="M7.6587 11.6464V7.67616C7.6587 6.35995 8.18156 5.09764 9.11226 4.16694C10.043 3.23624 11.3053 2.71338 12.6215 2.71338C13.9377 2.71338 15.2 3.23624 16.1307 4.16694C17.0614 5.09764 17.5843 6.35995 17.5843 7.67616V11.6464M5.67359 11.6464H19.5694C20.6657 11.6464 21.5545 12.5351 21.5545 13.6315V20.5794C21.5545 21.6757 20.6657 22.5645 19.5694 22.5645H5.67359C4.57724 22.5645 3.68848 21.6757 3.68848 20.5794V13.6315C3.68848 12.5351 4.57724 11.6464 5.67359 11.6464Z" stroke="#101828" stroke-width="1.38958" stroke-linecap="round" stroke-linejoin="round"/>
</svg>
