<svg width="25" height="25" viewBox="0 0 25 25" fill="none" xmlns="http://www.w3.org/2000/svg">
<path d="M17.0684 8.66123C17.6221 9.21432 18.0614 9.87112 18.3611 10.5941C18.6608 11.3171 18.815 12.092 18.815 12.8746C18.815 13.6573 18.6608 14.4322 18.3611 15.1552C18.0614 15.8781 17.6221 16.5349 17.0684 17.088M8.65153 17.0781C8.09782 16.525 7.65856 15.8682 7.35886 15.1452C7.05916 14.4223 6.90491 13.6473 6.90491 12.8647C6.90491 12.0821 7.05916 11.3071 7.35886 10.5842C7.65856 9.8612 8.09782 9.20439 8.65153 8.6513M19.8773 5.85229C21.7381 7.71361 22.7834 10.2378 22.7834 12.8697C22.7834 15.5016 21.7381 18.0257 19.8773 19.887M5.84259 19.887C3.98184 18.0257 2.93652 15.5016 2.93652 12.8697C2.93652 10.2378 3.98184 7.71361 5.84259 5.85229M14.8451 12.8697C14.8451 13.966 13.9563 14.8548 12.86 14.8548C11.7636 14.8548 10.8749 13.966 10.8749 12.8697C10.8749 11.7733 11.7636 10.8846 12.86 10.8846C13.9563 10.8846 14.8451 11.7733 14.8451 12.8697Z" stroke="#101828" stroke-width="1.38958" stroke-linecap="round" stroke-linejoin="round"/>
</svg>
