<svg width="25" height="25" viewBox="0 0 25 25" fill="none" xmlns="http://www.w3.org/2000/svg">
<g clip-path="url(#clip0_857_415)">
<path d="M16.7106 21.5721V19.5869C16.7106 18.534 16.2923 17.5241 15.5478 16.7796C14.8032 16.035 13.7933 15.6167 12.7404 15.6167H5.79249C4.73952 15.6167 3.72968 16.035 2.98512 16.7796C2.24056 17.5241 1.82227 18.534 1.82227 19.5869V21.5721M17.7032 11.6465L19.6883 13.6316L23.6585 9.66139M13.2367 7.67628C13.2367 9.86897 11.4591 11.6465 9.26643 11.6465C7.07374 11.6465 5.29621 9.86897 5.29621 7.67628C5.29621 5.48358 7.07374 3.70605 9.26643 3.70605C11.4591 3.70605 13.2367 5.48358 13.2367 7.67628Z" stroke="#101828" stroke-width="1.38958" stroke-linecap="round" stroke-linejoin="round"/>
</g>
<defs>
<clipPath id="clip0_857_415">
<rect width="23.8213" height="23.8213" fill="white" transform="translate(0.830078 0.728271)"/>
</clipPath>
</defs>
</svg>
