<svg width="25" height="25" viewBox="0 0 25 25" fill="none" xmlns="http://www.w3.org/2000/svg">
<g clip-path="url(#clip0_968_2911)">
<path d="M16.7106 21.5725V19.5874C16.7106 18.5345 16.2923 17.5246 15.5478 16.7801C14.8032 16.0355 13.7933 15.6172 12.7404 15.6172H5.79249C4.73952 15.6172 3.72968 16.0355 2.98512 16.7801C2.24056 17.5246 1.82227 18.5345 1.82227 19.5874V21.5725M17.7032 11.647L19.6883 13.6321L23.6585 9.66188M13.2367 7.67677C13.2367 9.86946 11.4591 11.647 9.26643 11.647C7.07374 11.647 5.29621 9.86946 5.29621 7.67677C5.29621 5.48407 7.07374 3.70654 9.26643 3.70654C11.4591 3.70654 13.2367 5.48407 13.2367 7.67677Z" stroke="white" stroke-width="1.38958" stroke-linecap="round" stroke-linejoin="round"/>
</g>
<defs>
<clipPath id="clip0_968_2911">
<rect width="23.8213" height="23.8213" fill="white" transform="translate(0.830078 0.729004)"/>
</clipPath>
</defs>
</svg>
