<svg width="25" height="25" viewBox="0 0 25 25" fill="none" xmlns="http://www.w3.org/2000/svg">
<path d="M7.65968 11.6474V7.67713C7.65968 6.36092 8.18254 5.09862 9.11324 4.16792C10.0439 3.23722 11.3062 2.71436 12.6225 2.71436C13.9387 2.71436 15.201 3.23722 16.1317 4.16792C17.0624 5.09862 17.5852 6.36092 17.5852 7.67713V11.6474M5.67456 11.6474H19.5703C20.6667 11.6474 21.5555 12.5361 21.5555 13.6325V20.5804C21.5555 21.6767 20.6667 22.5655 19.5703 22.5655H5.67456C4.57822 22.5655 3.68945 21.6767 3.68945 20.5804V13.6325C3.68945 12.5361 4.57822 11.6474 5.67456 11.6474Z" stroke="white" stroke-width="1.38958" stroke-linecap="round" stroke-linejoin="round"/>
</svg>
