<svg width="25" height="25" viewBox="0 0 25 25" fill="none" xmlns="http://www.w3.org/2000/svg">
<path d="M17.0674 8.66196C17.6211 9.21505 18.0604 9.87186 18.3601 10.5948C18.6598 11.3178 18.814 12.0927 18.814 12.8754C18.814 13.658 18.6598 14.4329 18.3601 15.1559C18.0604 15.8789 17.6211 16.5357 17.0674 17.0888M8.65055 17.0788C8.09684 16.5257 7.65758 15.8689 7.35789 15.146C7.05819 14.423 6.90393 13.6481 6.90393 12.8654C6.90393 12.0828 7.05819 11.3079 7.35789 10.5849C7.65758 9.86193 8.09684 9.20513 8.65055 8.65204M19.8764 5.85303C21.7371 7.71434 22.7824 10.2385 22.7824 12.8704C22.7824 15.5023 21.7371 18.0264 19.8764 19.8878M5.84162 19.8878C3.98086 18.0264 2.93555 15.5023 2.93555 12.8704C2.93555 10.2385 3.98086 7.71434 5.84162 5.85303M14.8441 12.8704C14.8441 13.9667 13.9553 14.8555 12.859 14.8555C11.7626 14.8555 10.8739 13.9667 10.8739 12.8704C10.8739 11.7741 11.7626 10.8853 12.859 10.8853C13.9553 10.8853 14.8441 11.7741 14.8441 12.8704Z" stroke="white" stroke-width="1.38958" stroke-linecap="round" stroke-linejoin="round"/>
</svg>
