<svg width="28" height="30" viewBox="0 0 28 30" fill="none" xmlns="http://www.w3.org/2000/svg">
<path d="M22 9.6665C24.2091 9.6665 26 7.87564 26 5.6665C26 3.45736 24.2091 1.6665 22 1.6665C19.7909 1.6665 18 3.45736 18 5.6665C18 7.87564 19.7909 9.6665 22 9.6665Z" stroke="white" stroke-width="3" stroke-linecap="round" stroke-linejoin="round"/>
<path d="M6 18.9998C8.20914 18.9998 10 17.209 10 14.9998C10 12.7907 8.20914 10.9998 6 10.9998C3.79086 10.9998 2 12.7907 2 14.9998C2 17.209 3.79086 18.9998 6 18.9998Z" stroke="white" stroke-width="3" stroke-linecap="round" stroke-linejoin="round"/>
<path d="M22 28.3331C24.2091 28.3331 26 26.5423 26 24.3331C26 22.124 24.2091 20.3331 22 20.3331C19.7909 20.3331 18 22.124 18 24.3331C18 26.5423 19.7909 28.3331 22 28.3331Z" stroke="white" stroke-width="3" stroke-linecap="round" stroke-linejoin="round"/>
<path d="M9.45312 17.0131L18.5598 22.3198" stroke="white" stroke-width="3" stroke-linecap="round" stroke-linejoin="round"/>
<path d="M18.5465 7.67981L9.45312 12.9865" stroke="white" stroke-width="3" stroke-linecap="round" stroke-linejoin="round"/>
</svg>
